<?xml version="1.0" encoding="iso-8859-1"?>
<!-- Generator: Adobe Illustrator 21.0.0, SVG Export Plug-In . SVG Version: 6.00 Build 0)  -->
<svg version="1.1" id="Layer_1" xmlns="http://www.w3.org/2000/svg" xmlns:xlink="http://www.w3.org/1999/xlink" x="0px" y="0px"
	 viewBox="0 0 24 24" enable-background="new 0 0 24 24" xml:space="preserve" width="24" height="24">
<path fill="#303C42" d="M19,2h-2.0921021C16.7008057,1.4192505,16.151001,1,15.5,1h-1.5102539
	C13.5200195,0.3769531,12.7817383,0,12,0s-1.5200195,0.3769531-1.9897461,1H8.5C7.848999,1,7.2991943,1.4192505,7.0921021,2H5
	C3.8969727,2,3,2.8969727,3,4v18c0,1.1030273,0.8969727,2,2,2h14c1.1030273,0,2-0.8969727,2-2V4C21,2.8969727,20.1030273,2,19,2z
	 M8,2.5C8,2.2241211,8.2241211,2,8.5,2h1.7773438c0.1777344,0,0.3422852-0.0947266,0.4321289-0.2485352
	C10.9833984,1.2807617,11.4658203,1,12,1s1.0166016,0.2807617,1.2905273,0.7514648C13.3803711,1.9052734,13.5449219,2,13.7226563,2
	H15.5C15.7758789,2,16,2.2241211,16,2.5V3c0,0.5512695-0.4487305,1-1,1H9C8.4487305,4,8,3.5512695,8,3V2.5z M20,22
	c0,0.5512695-0.4487305,1-1,1H5c-0.5512695,0-1-0.4487305-1-1V4c0-0.5512695,0.4487305-1,1-1h2c0,1.1030273,0.8969727,2,2,2h6
	c1.1030273,0,2-0.8969727,2-2h2c0.5512695,0,1,0.4487305,1,1V22z"/>
<g>
</g>
<g>
</g>
<g>
</g>
<g>
</g>
<g>
</g>
<g>
</g>
<g>
</g>
<g>
</g>
<g>
</g>
<g>
</g>
<g>
</g>
<g>
</g>
<g>
</g>
<g>
</g>
<g>
</g>
</svg>
